<svg width="41" height="34" viewBox="0 0 41 34" fill="none" xmlns="http://www.w3.org/2000/svg">
<path d="M13.2127 26.9434C13.2127 27.8313 12.6934 28.2728 11.6597 28.2728C10.6429 28.2728 10.1358 27.8313 10.1358 26.9434V14.0479H8.80599C8.14595 14.0479 7.79652 13.6161 7.75769 12.7476C7.75769 11.8816 8.10712 11.4474 8.80599 11.4474H10.1358V10.1181C10.1358 9.36122 10.2425 8.72081 10.4561 8.19684C10.6696 7.67287 11.0142 7.27261 11.4947 6.99364V7.02275C11.9727 6.72681 12.4653 6.49635 12.97 6.33383C13.4796 6.16645 14.0232 6.08154 14.6007 6.08154H15.2608C15.9402 6.08154 16.2799 6.51576 16.2799 7.38177C16.3188 8.25021 15.979 8.682 15.2608 8.682H14.8143C14.4648 8.682 14.1834 8.71596 13.9698 8.77903C13.7611 8.84453 13.601 8.94156 13.4845 9.07013C13.3729 9.20112 13.3001 9.3588 13.2612 9.54558C13.2273 9.72752 13.2127 9.92886 13.2127 10.1472V11.4474H15.2899C16.0082 11.4474 16.3479 11.8816 16.3091 12.7476C16.3091 13.6161 15.9693 14.0479 15.2899 14.0479H13.2127V26.9434Z" fill="white"/>
<path d="M21.3599 23.4892V27.0017C21.3599 27.8702 20.8503 28.302 19.836 28.302C18.8192 28.302 18.3121 27.8702 18.3121 27.0017V7.29455C18.3121 6.40913 18.8192 5.96521 19.836 5.96521C20.8503 5.96521 21.3599 6.40913 21.3599 7.29455V19.0354C21.8258 18.4799 22.3354 17.8856 22.8935 17.25C23.4565 16.6096 24.0195 15.9644 24.5824 15.3094C25.1454 14.6568 25.7035 14.014 26.2616 13.3785C26.8173 12.738 27.3342 12.1413 27.8147 11.5834V11.6125C28.1447 11.2243 28.4747 11.0303 28.8047 11.0303C28.9916 11.0303 29.1736 11.0739 29.3483 11.1564C29.523 11.2413 29.7099 11.3578 29.9113 11.5057H29.8919C30.3311 11.8745 30.5519 12.2432 30.5519 12.6119C30.5519 12.7429 30.5228 12.8836 30.4645 13.0388C30.4111 13.1941 30.3214 13.3275 30.1928 13.4367L21.3599 23.4892ZM30.6101 26.2546C30.7387 26.4947 30.8043 26.7446 30.8043 27.0017C30.8043 27.482 30.5252 27.8411 29.9695 28.0788C29.6007 28.2971 29.2706 28.4087 28.9794 28.4087C28.7708 28.4087 28.5742 28.3408 28.3874 28.2049C28.2054 28.0691 28.0598 27.8993 27.9506 27.6907L25.1842 22.3539C25.0144 22.0774 24.9319 21.7984 24.9319 21.5194C24.9319 21.061 25.1697 20.6728 25.6501 20.3551C25.7788 20.2653 25.9122 20.1852 26.0481 20.1125C26.1888 20.0348 26.3442 19.9815 26.514 19.9475C26.713 19.9087 26.9047 19.9451 27.0867 20.0543C27.2735 20.1658 27.4313 20.3138 27.5623 20.5006L30.6101 26.2546Z" fill="#4DABF7"/>
</svg>
